<?xml version="1.0" standalone="no"?>
<!DOCTYPE svg PUBLIC "-//W3C//DTD SVG 1.1//EN" "http://www.w3.org/Graphics/SVG/1.1/DTD/svg11.dtd" >
<svg xmlns="http://www.w3.org/2000/svg">
<metadata>Generated by IcoMoon</metadata>
<defs>
<font id="tjetak-icons" horiz-adv-x="1024">
<font-face units-per-em="1024" ascent="960" descent="-64" />
<missing-glyph horiz-adv-x="1024" />
<glyph unicode="&#x20;" horiz-adv-x="512" d="" />
<glyph unicode="&#xe000;" glyph-name="error" d="M554 384.667v256h-84v-256h84zM554 212.667v86h-84v-86h84zM512 852.667c236 0 426-190 426-426s-190-426-426-426-426 190-426 426 190 426 426 426z" />
<glyph unicode="&#xe001;" glyph-name="error_outline" d="M512 84.667c188 0 342 154 342 342s-154 342-342 342-342-154-342-342 154-342 342-342zM512 852.667c236 0 426-190 426-426s-190-426-426-426-426 190-426 426 190 426 426 426zM470 640.667h84v-256h-84v256zM470 298.667h84v-86h-84v86z" />
<glyph unicode="&#xe0cd;" glyph-name="phone" d="M282 478.667c62-120 162-220 282-282l94 94c12 12 30 16 44 10 48-16 100-24 152-24 24 0 42-18 42-42v-150c0-24-18-42-42-42-400 0-726 326-726 726 0 24 18 42 42 42h150c24 0 42-18 42-42 0-54 8-104 24-152 4-14 2-32-10-44z" />
<glyph unicode="&#xe0d6;" glyph-name="stay_primary_portrait" d="M726 128.667v596h-428v-596h428zM726 894.667c46 0 84-38 84-84v-768c0-46-38-86-84-86h-428c-46 0-84 40-84 86v768c0 46 38 86 84 86z" />
<glyph unicode="&#xe0e1;" glyph-name="mail_outline" d="M512 468.667l342 214h-684zM854 170.667v426l-342-212-342 212v-426h684zM854 768.667c46 0 84-40 84-86v-512c0-46-38-86-84-86h-684c-46 0-84 40-84 86v512c0 46 38 86 84 86h684z" />
<glyph unicode="&#xe145;" glyph-name="add" d="M810 384.667h-256v-256h-84v256h-256v84h256v256h84v-256h256v-84z" />
<glyph unicode="&#xe147;" glyph-name="add_circle" d="M726 384.667v84h-172v172h-84v-172h-172v-84h172v-172h84v172h172zM512 852.667c236 0 426-190 426-426s-190-426-426-426-426 190-426 426 190 426 426 426z" />
<glyph unicode="&#xe159;" glyph-name="markunread" d="M854 596.667v86l-342-214-342 214v-86l342-212zM854 768.667c46 0 84-40 84-86v-512c0-46-38-86-84-86h-684c-46 0-84 40-84 86v512c0 46 38 86 84 86h684z" />
<glyph unicode="&#xe15b;" glyph-name="remove" d="M810 384.667h-596v84h596v-84z" />
<glyph unicode="&#xe15c;" glyph-name="remove_circle" d="M726 384.667v84h-428v-84h428zM512 852.667c236 0 426-190 426-426s-190-426-426-426-426 190-426 426 190 426 426 426z" />
<glyph unicode="&#xe254;" glyph-name="mode_edit" d="M884 638.667l-78-78-160 160 78 78c16 16 44 16 60 0l100-100c16-16 16-44 0-60zM128 202.667l472 472 160-160-472-472h-160v160z" />
<glyph unicode="&#xe2c3;" glyph-name="cloud_upload" d="M598 384.667h128l-214 212-214-212h128v-172h172v172zM826 510.667c110-8 198-100 198-212 0-118-96-214-214-214h-554c-142 0-256 114-256 256 0 132 100 240 228 254 54 102 160 174 284 174 156 0 284-110 314-258z" />
<glyph unicode="&#xe313;" glyph-name="keyboard_arrow_down" d="M316 604.667l196-196 196 196 60-60-256-256-256 256z" />
<glyph unicode="&#xe314;" glyph-name="keyboard_arrow_left" d="M658 252.667l-60-60-256 256 256 256 60-60-196-196z" />
<glyph unicode="&#xe315;" glyph-name="keyboard_arrow_right" d="M366 240.667l196 196-196 196 60 60 256-256-256-256z" />
<glyph unicode="&#xe316;" glyph-name="keyboard_arrow_up" d="M316 280.667l-60 60 256 256 256-256-60-60-196 196z" />
<glyph unicode="&#xe324;" glyph-name="phone_android" d="M736 170.667v598h-448v-598h448zM598 42.667v42h-172v-42h172zM682 896.667c70 0 128-58 128-128v-684c0-70-58-128-128-128h-340c-70 0-128 58-128 128v684c0 70 58 128 128 128h340z" />
<glyph unicode="&#xe325;" glyph-name="phone_iphone" d="M682 170.667v598h-384v-598h384zM490 0.667c36 0 64 28 64 64s-28 64-64 64-64-28-64-64 28-64 64-64zM662 896.667c58 0 106-50 106-108v-724c0-58-48-108-106-108h-342c-58 0-106 50-106 108v724c0 58 48 108 106 108h342z" />
<glyph unicode="&#xe3ae;" glyph-name="brush" d="M884 740.667c16-16 16-44 0-60l-382-382-118 118 382 382c16 16 44 16 60 0zM298 340.667c70 0 128-58 128-128 0-94-76-170-170-170-64 0-130 34-170 86 36 0 84 28 84 84 0 70 58 128 128 128z" />
<glyph unicode="&#xe3ba;" glyph-name="control_point" d="M512 84.667c188 0 342 154 342 342s-154 342-342 342-342-154-342-342 154-342 342-342zM512 852.667c236 0 426-190 426-426s-190-426-426-426-426 190-426 426 190 426 426 426zM554 640.667v-172h172v-84h-172v-172h-84v172h-172v84h172v172h84z" />
<glyph unicode="&#xe409;" glyph-name="navigate_next" d="M426 682.667l256-256-256-256-60 60 196 196-196 196z" />
<glyph unicode="&#xe412;" glyph-name="photo_camera" d="M512 212.667c118 0 214 96 214 214s-96 214-214 214-214-96-214-214 96-214 214-214zM384 852.667h256l78-84h136c46 0 84-40 84-86v-512c0-46-38-86-84-86h-684c-46 0-84 40-84 86v512c0 46 38 86 84 86h136zM376 426.667c0 76 60 136 136 136s136-60 136-136-60-136-136-136-136 60-136 136z" />
<glyph unicode="&#xe413;" glyph-name="photo_library" d="M86 682.667h84v-598h598v-84h-598c-46 0-84 38-84 84v598zM470 426.667l-128-170h512l-172 212-126-158zM938 256.667c0-46-38-86-84-86h-512c-46 0-86 40-86 86v512c0 46 40 84 86 84h512c46 0 84-38 84-84v-512z" />
<glyph unicode="&#xe558;" glyph-name="local_shipping" d="M768 148.667c36 0 64 28 64 64s-28 64-64 64-64-28-64-64 28-64 64-64zM832 532.667h-106v-106h190zM256 148.667c36 0 64 28 64 64s-28 64-64 64-64-28-64-64 28-64 64-64zM854 596.667l128-170v-214h-86c0-70-58-128-128-128s-128 58-128 128h-256c0-70-58-128-128-128s-128 58-128 128h-86v470c0 46 40 86 86 86h598v-172h128z" />
<glyph unicode="&#xe55c;" glyph-name="my_location" d="M512 128.667c166 0 298 132 298 298s-132 298-298 298-298-132-298-298 132-298 298-298zM894 468.667h88v-84h-88c-20-178-162-320-340-340v-88h-84v88c-178 20-320 162-340 340h-88v84h88c20 178 162 320 340 340v88h84v-88c178-20 320-162 340-340zM512 596.667c94 0 170-76 170-170s-76-170-170-170-170 76-170 170 76 170 170 170z" />
<glyph unicode="&#xe5c3;" glyph-name="apps" d="M682 84.667v172h172v-172h-172zM682 340.667v172h172v-172h-172zM426 596.667v172h172v-172h-172zM682 768.667h172v-172h-172v172zM426 340.667v172h172v-172h-172zM170 340.667v172h172v-172h-172zM170 84.667v172h172v-172h-172zM426 84.667v172h172v-172h-172zM170 596.667v172h172v-172h-172z" />
<glyph unicode="&#xe5c5;" glyph-name="arrow_drop_down" d="M298 512.667h428l-214-214z" />
<glyph unicode="&#xe5c6;" glyph-name="arrow_drop_down_circle" d="M512 340.667l170 172h-340zM512 852.667c236 0 426-190 426-426s-190-426-426-426-426 190-426 426 190 426 426 426z" />
<glyph unicode="&#xe5c7;" glyph-name="arrow_drop_up" d="M298 340.667l214 214 214-214h-428z" />
<glyph unicode="&#xe5c9;" glyph-name="cancel" d="M726 272.667l-154 154 154 154-60 60-154-154-154 154-60-60 154-154-154-154 60-60 154 154 154-154zM512 852.667c236 0 426-190 426-426s-190-426-426-426-426 190-426 426 190 426 426 426z" />
<glyph unicode="&#xe5ca;" glyph-name="check" d="M384 248.667l452 452 60-60-512-512-238 238 60 60z" />
<glyph unicode="&#xe5cd;" glyph-name="close" d="M810 664.667l-238-238 238-238-60-60-238 238-238-238-60 60 238 238-238 238 60 60 238-238 238 238z" />
<glyph unicode="&#xe5ce;" glyph-name="expand_less" d="M512 596.667l256-256-60-60-196 196-196-196-60 60z" />
<glyph unicode="&#xe5cf;" glyph-name="expand_more" d="M708 572.667l60-60-256-256-256 256 60 60 196-196z" />
<glyph unicode="&#xe5d5;" glyph-name="refresh" d="M754 668.667l100 100v-300h-300l138 138c-46 46-110 76-180 76-142 0-256-114-256-256s114-256 256-256c112 0 208 70 242 170h88c-38-148-170-256-330-256-188 0-340 154-340 342s152 342 340 342c94 0 180-38 242-100z" />
<glyph unicode="&#xe61d;" glyph-name="phone_in_talk" d="M640 426.667c0 70-58 128-128 128v86c118 0 214-96 214-214h-86zM810 426.667c0 166-132 298-298 298v86c212 0 384-172 384-384h-86zM854 276.667c24 0 42-18 42-42v-150c0-24-18-42-42-42-400 0-726 326-726 726 0 24 18 42 42 42h150c24 0 42-18 42-42 0-54 8-104 24-152 4-14 2-32-10-44l-94-94c62-122 162-220 282-282l94 94c12 12 30 14 44 10 48-16 98-24 152-24z" />
<glyph unicode="&#xe627;" glyph-name="sync" d="M512 170.667v128l170-170-170-172v128c-188 0-342 154-342 342 0 66 20 130 54 182l62-62c-20-36-30-76-30-120 0-142 114-256 256-256zM512 768.667c188 0 342-154 342-342 0-66-20-130-54-182l-62 62c20 36 30 76 30 120 0 142-114 256-256 256v-128l-170 170 170 172v-128z" />
<glyph unicode="&#xe7f4;" glyph-name="notifications" d="M768 256.667l86-86v-42h-684v42l86 86v212c0 132 70 240 192 270v30c0 36 28 64 64 64s64-28 64-64v-30c122-30 192-140 192-270v-212zM512 0.667c-48 0-86 38-86 84h172c0-46-40-84-86-84z" />
<glyph unicode="&#xe7f5;" glyph-name="notifications_none" d="M682 212.667v256c0 106-64 192-170 192s-170-86-170-192v-256h340zM768 256.667l86-86v-42h-684v42l86 86v212c0 132 70 240 192 270v30c0 36 28 64 64 64s64-28 64-64v-30c122-30 192-140 192-270v-212zM512 0.667c-46 0-86 38-86 84h172c0-46-40-84-86-84z" />
<glyph unicode="&#xe7fd;" glyph-name="person" d="M512 340.667c114 0 342-56 342-170v-86h-684v86c0 114 228 170 342 170zM512 426.667c-94 0-170 76-170 170s76 172 170 172 170-78 170-172-76-170-170-170z" />
<glyph unicode="&#xe836;" glyph-name="radio_button_unchecked" d="M512 84.667c188 0 342 154 342 342s-154 342-342 342-342-154-342-342 154-342 342-342zM512 852.667c236 0 426-190 426-426s-190-426-426-426-426 190-426 426 190 426 426 426z" />
<glyph unicode="&#xe838;" glyph-name="star" d="M512 202.667l-264-160 70 300-232 202 306 26 120 282 120-282 306-26-232-202 70-300z" />
<glyph unicode="&#xe83a;" glyph-name="star_border" d="M512 280.667l160-96-42 182 142 124-188 16-72 172-72-172-188-16 142-124-42-182zM938 544.667l-232-202 70-300-264 160-264-160 70 300-232 202 306 26 120 282 120-282z" />
<glyph unicode="&#xe86c;" glyph-name="check_circle" d="M426 212.667l384 384-60 62-324-324-152 152-60-60zM512 852.667c236 0 426-190 426-426s-190-426-426-426-426 190-426 426 190 426 426 426z" />
<glyph unicode="&#xe86d;" glyph-name="chrome_reader_mode" d="M896 128.667v554h-384v-554h384zM896 768.667c46 0 86-40 86-86v-554c0-46-40-86-86-86h-768c-46 0-86 40-86 86v554c0 46 40 86 86 86h768zM554 320.667h300v-64h-300v64zM554 532.667h300v-64h-300v64zM554 426.667h300v-64h-300v64z" />
<glyph unicode="&#xe872;" glyph-name="delete" d="M810 768.667v-86h-596v86h148l44 42h212l44-42h148zM256 128.667v512h512v-512c0-46-40-86-86-86h-340c-46 0-86 40-86 86z" />
<glyph unicode="&#xe876;" glyph-name="done" d="M384 246.667l452 454 60-60-512-512-238 238 58 60z" />
<glyph unicode="&#xe887;" glyph-name="help" d="M642 458.667c24 24 40 58 40 96 0 94-76 170-170 170s-170-76-170-170h84c0 46 40 86 86 86s86-40 86-86c0-24-10-44-26-60l-52-54c-30-32-50-74-50-120v-22h84c0 64 20 88 50 120zM554 128.667v84h-84v-84h84zM512 852.667c236 0 426-190 426-426s-190-426-426-426-426 190-426 426 190 426 426 426z" />
<glyph unicode="&#xe88e;" glyph-name="info" d="M554 554.667v86h-84v-86h84zM554 212.667v256h-84v-256h84zM512 852.667c236 0 426-190 426-426s-190-426-426-426-426 190-426 426 190 426 426 426z" />
<glyph unicode="&#xe88f;" glyph-name="info_outline" d="M470 554.667v86h84v-86h-84zM512 84.667c188 0 342 154 342 342s-154 342-342 342-342-154-342-342 154-342 342-342zM512 852.667c236 0 426-190 426-426s-190-426-426-426-426 190-426 426 190 426 426 426zM470 212.667v256h84v-256h-84z" />
<glyph unicode="&#xe899;" glyph-name="lock_outline" d="M768 84.667v428h-512v-428h512zM380 682.667v-86h264v86c0 72-60 132-132 132s-132-60-132-132zM768 596.667c46 0 86-38 86-84v-428c0-46-40-84-86-84h-512c-46 0-86 38-86 84v428c0 46 40 84 86 84h42v86c0 118 96 214 214 214s214-96 214-214v-86h42zM512 212.667c-46 0-86 40-86 86s40 86 86 86 86-40 86-86-40-86-86-86z" />
<glyph unicode="&#xe8b4;" glyph-name="room" d="M512 448.667c58 0 106 48 106 106s-48 106-106 106-106-48-106-106 48-106 106-106zM512 852.667c166 0 298-132 298-298 0-224-298-554-298-554s-298 330-298 554c0 166 132 298 298 298z" />
<glyph unicode="&#xe8b5;" glyph-name="schedule" d="M534 640.667v-224l192-114-32-54-224 136v256h64zM512 84.667c188 0 342 154 342 342s-154 342-342 342-342-154-342-342 154-342 342-342zM512 852.667c236 0 426-190 426-426s-190-426-426-426-426 190-426 426 190 426 426 426z" />
<glyph unicode="&#xe8b6;" glyph-name="search" d="M406 340.667c106 0 192 86 192 192s-86 192-192 192-192-86-192-192 86-192 192-192zM662 340.667l212-212-64-64-212 212v34l-12 12c-48-42-112-66-180-66-154 0-278 122-278 276s124 278 278 278 276-124 276-278c0-68-24-132-66-180l12-12h34z" />
<glyph unicode="&#xe8b8;" glyph-name="settings" d="M512 276.667c82 0 150 68 150 150s-68 150-150 150-150-68-150-150 68-150 150-150zM830 384.667l90-70c8-6 10-18 4-28l-86-148c-6-10-16-12-26-8l-106 42c-22-16-46-32-72-42l-16-112c-2-10-10-18-20-18h-172c-10 0-18 8-20 18l-16 112c-26 10-50 24-72 42l-106-42c-10-4-20-2-26 8l-86 148c-6 10-4 22 4 28l90 70c-2 14-2 28-2 42s0 28 2 42l-90 70c-8 6-10 18-4 28l86 148c6 10 16 12 26 8l106-42c22 16 46 32 72 42l16 112c2 10 10 18 20 18h172c10 0 18-8 20-18l16-112c26-10 50-24 72-42l106 42c10 4 20 2 26-8l86-148c6-10 4-22-4-28l-90-70c2-14 2-28 2-42s0-28-2-42z" />
<glyph unicode="&#xe8d3;" glyph-name="supervisor_account" d="M384 384.667c28 0 64-4 102-12-88-48-102-112-102-148v-96h-298v106c0 100 198 150 298 150zM704 340.667c78 0 234-38 234-116v-96h-468v96c0 78 156 116 234 116zM384 468.667c-70 0-128 58-128 128s58 128 128 128 128-58 128-128-58-128-128-128zM704 426.667c-58 0-106 48-106 106s48 108 106 108 106-50 106-108-48-106-106-106z" />
<glyph unicode="&#xe8e8;" glyph-name="verified_user" d="M426 212.667l342 342-60 60-282-280-110 110-60-60zM512 896.667l384-172v-256c0-236-164-458-384-512-220 54-384 276-384 512v256z" />
<glyph unicode="&#xe8f4;" glyph-name="visibility" d="M512 554.667c70 0 128-58 128-128s-58-128-128-128-128 58-128 128 58 128 128 128zM512 212.667c118 0 214 96 214 214s-96 214-214 214-214-96-214-214 96-214 214-214zM512 746.667c214 0 396-132 470-320-74-188-256-320-470-320s-396 132-470 320c74 188 256 320 470 320z" />
<glyph unicode="&#xe8f5;" glyph-name="visibility_off" d="M506 554.667h6c70 0 128-58 128-128v-8zM322 520.667c-14-28-24-60-24-94 0-118 96-214 214-214 34 0 66 10 94 24l-66 66c-8-2-18-4-28-4-70 0-128 58-128 128 0 10 2 20 4 28zM86 756.667l54 54 756-756-54-54c-47.968 47.365-96.266 94.401-144 142-58-24-120-36-186-36-214 0-396 132-470 320 34 84 90 156 160 212-39.017 38.983-77.307 78.693-116 118zM512 640.667c-28 0-54-6-78-16l-92 92c52 20 110 30 170 30 214 0 394-132 468-320-32-80-82-148-146-202l-124 124c10 24 16 50 16 78 0 118-96 214-214 214z" />
<glyph unicode="&#xe8fd;" glyph-name="help_outline" d="M512 682.667c94 0 170-76 170-170 0-106-128-118-128-214h-84c0 138 128 128 128 214 0 46-40 84-86 84s-86-38-86-84h-84c0 94 76 170 170 170zM512 84.667c188 0 342 154 342 342s-154 342-342 342-342-154-342-342 154-342 342-342zM512 852.667c236 0 426-190 426-426s-190-426-426-426-426 190-426 426 190 426 426 426zM470 170.667v86h84v-86h-84z" />
<glyph unicode="&#xe8ff;" glyph-name="zoom_in" d="M512 512.667h-86v-86h-42v86h-86v42h86v86h42v-86h86v-42zM406 340.667c106 0 192 86 192 192s-86 192-192 192-192-86-192-192 86-192 192-192zM662 340.667l212-212-64-64-212 212v34l-12 12c-48-42-112-66-180-66-154 0-278 122-278 276s124 278 278 278 276-124 276-278c0-68-24-132-66-180l12-12h34z" />
<glyph unicode="&#xe900;" glyph-name="credit-card" d="M853.333 618.667h-682.667v85.333h682.667zM853.333 192h-682.667v256h682.667zM853.333 789.333h-682.667c-47.36 0-85.333-37.973-85.333-85.333v-512c0-47.128 38.205-85.333 85.333-85.333v0h682.667c47.128 0 85.333 38.205 85.333 85.333v0 512c0 47.36-38.4 85.333-85.333 85.333z" />
<glyph unicode="&#xe901;" glyph-name="checkbox-blank-circle-outline" d="M512 106.667c-188.513 0-341.333 152.82-341.333 341.333v0c0 188.513 152.82 341.333 341.333 341.333v0c188.513 0 341.333-152.82 341.333-341.333v0c0-188.513-152.82-341.333-341.333-341.333v0zM512 874.667c-235.641 0-426.667-191.025-426.667-426.667v0c0-235.641 191.025-426.667 426.667-426.667v0c235.641 0 426.667 191.025 426.667 426.667v0c0 235.641-191.025 426.667-426.667 426.667v0z" />
<glyph unicode="&#xe902;" glyph-name="checkbox-blank-circle" d="M512 874.667c-235.641 0-426.667-191.025-426.667-426.667v0c0-235.641 191.025-426.667 426.667-426.667v0c235.641 0 426.667 191.025 426.667 426.667v0c0 235.641-191.025 426.667-426.667 426.667v0z" />
<glyph unicode="&#xe903;" glyph-name="arrow-right-thick" d="M170.667 533.333v-170.667h384l-149.333-149.333 103.253-103.253 337.92 337.92-337.92 337.92-103.253-103.253 149.333-149.333h-384z" />
<glyph unicode="&#xe904;" glyph-name="cart-outline" d="M725.333 192c47.128 0 85.333-38.205 85.333-85.333v0c0-47.128-38.205-85.333-85.333-85.333v0c-47.36 0-85.333 38.4-85.333 85.333 0 47.36 37.973 85.333 85.333 85.333zM42.667 874.667h139.52l40.107-85.333h631.040c23.564 0 42.667-19.103 42.667-42.667v0c0-7.253-2.133-14.507-5.12-21.333l-152.747-276.053c-14.507-26.027-42.667-43.947-74.667-43.947h-317.867l-38.4-69.547-1.28-5.12c0-5.891 4.776-10.667 10.667-10.667v0h494.080v-85.333h-512c-47.36 0-85.333 38.4-85.333 85.333 0 14.933 3.84 29.013 10.24 40.96l58.027 104.533-153.6 323.84h-85.333v85.333zM298.667 192c47.128 0 85.333-38.205 85.333-85.333v0c0-47.128-38.205-85.333-85.333-85.333v0c-47.36 0-85.333 38.4-85.333 85.333 0 47.36 37.973 85.333 85.333 85.333zM682.667 490.667l118.613 213.333h-539.307l100.693-213.333h320z" />
<glyph unicode="&#xe905;" glyph-name="icon-account" d="M663.091 664.784c0 97.108-73.85 175.232-164.128 175.232s-164.128-78.124-164.128-175.232c0-97.108 73.85-175.232 164.128-175.232s164.128 78.124 164.128 175.232zM719.091 664.784c0-127.354-98.196-231.232-220.128-231.232s-220.128 103.878-220.128 231.232c0 127.354 98.196 231.232 220.128 231.232s220.128-103.878 220.128-231.232zM834.14 39.543l0.416-1.376 0.362-1.312c0.849-3.396 1.348-6.694 1.348-10.439 0-20.009-13.542-39.264-35.904-39.264h-572.448c-22.404 0-35.904 19.247-35.904 39.264 0 3.531 0.326 5.624 0.992 8.755l0.581 2.365 0.623 2.131 103.853 352.85 1.072 3.054c5.382 12.892 16.83 22.813 32.527 22.813 5.479 0 9.834-1.194 13.938-3.155 0.424-0.189 0.848-0.389 1.272-0.601l0.32-0.16c13.518-6.57 35.605-16.046 61.136-24.944 40.257-14.029 77.263-22.247 106.392-22.085 28.33 0.176 63.856 7.99 102.538 21.205 25.388 8.673 47.895 18.133 63.446 25.544 0.129 0.020 0.232 0.081 0.331 0.139l0.601 0.301c0.16 0.080 0.32 0.158 0.48 0.235-0.286-0.13-0.59-0.285-1.077-0.532 1.020 0.598 1.614 0.863 2.275 1.074 3.883 1.872 7.593 2.98 13.147 2.98 17.017 0 29.252-11.619 34.22-27.272l103.462-351.569zM683.242 353.958c-13.994-5.95-30.285-12.294-47.885-18.307-43.899-14.997-84.786-23.991-120.313-24.211-36.784-0.204-79.395 9.258-125.15 25.203-16.637 5.798-31.918 11.815-44.794 17.312l-91.495-310.803h521.097l-91.462 310.806zM351.030 374.093l0.851 2.958-21.37 6.141-0.376-0.564 20.674-8.631c-2.502-5.992-8.987-11.613-19.151-11.613-3.56 0-6.28 0.613-8.561 1.543 0.298-0.145 0.599-0.29 0.903-0.437 0.303-0.125 0.606-0.243 0.909-0.357 0.336-0.132 0.635-0.218 1.047-0.336-0.36 0.102-0.626 0.177-0.915 0.284 8.316-3.055 16.682-1.788 23.391 2.182l2.599 8.83zM321.855 364.603l0.311-0.178 12.499 24.999-1.6-2.4-11.21-22.421zM704.791 363.636c0.199 0.095 0.396 0.192 0.592 0.291-2.372-0.949-5.057-1.542-8.926-1.542-10.755 0-17.4 6.326-19.458 12.817l-0.227 0.744 3.091-10.504c7.152-4.25 16.183-5.375 24.774-1.886 0.41 0.194 0.888 0.441 1.565 0.802 0.148 0.081 0.295 0.163 0.442 0.247l-0.095 0.189c-1.141-0.726-1.891-1.181-2.464-1.487 0.353 0.16 0.53 0.244 0.707 0.328z" />
<glyph unicode="&#xe906;" glyph-name="icon-quotation" d="M806.374 624.352c15.464 0 28-12.536 28-28v-503.616c0-40.456-32.792-73.28-73.248-73.28h-527.84c-40.48 0-73.28 32.816-73.28 73.28v729.984c0 40.488 32.792 73.28 73.28 73.28h315.392c15.464 0 28-12.536 28-28v-243.648h229.696zM233.286 840c-9.56 0-17.28-7.72-17.28-17.28v-729.984c0-9.542 7.734-17.28 17.28-17.28h527.84c9.516 0 17.248 7.74 17.248 17.28v475.616h-229.696c-15.464 0-28 12.536-28 28v243.648h-287.392zM277.728 562.288h181.184v68.064h-181.184zM277.728 698.768h181.184v68.064h-181.184zM277.728 424.4h312.64v66.656h-312.64zM548.678 568.342c-15.464 0-28 12.536-28 28v271.648c0 25.288 30.87 37.62 48.293 19.292l257.696-271.072c4.948-5.204 7.707-12.111 7.707-19.292v-0.576c0-15.464-12.536-28-28-28h-257.696zM741.67 624.342l-164.992 173.556v-173.556h164.992zM806.374 596.918h-28v-0.576h27.394l0.606 0.576z" />
<glyph unicode="&#xe907;" glyph-name="icon_home" d="M68.36 542.373c-1.774 10.954 3.089 21.922 12.397 27.963l439.392 285.152c9.637 6.254 22.117 5.987 31.477-0.674l401.824-285.952c8.611-6.128 13.038-16.582 11.446-27.031l-73.44-481.984c-2.084-13.677-13.845-23.782-27.681-23.782h-181.984c-13.454 0-25.006 9.569-27.511 22.788l-59.907 316.22h-140.973l-59.907-316.22c-2.504-13.219-14.056-22.788-27.511-22.788h-190.912c-13.715 0-25.411 9.934-27.631 23.468l-75.136 458.048c-0.11 0.669-0.195 1.337-0.255 2.004l-3.69 22.789zM906.939 533.228l-372.273 264.922-408.108-264.85 1.082-6.681c0.102-0.631 0.182-1.261 0.241-1.89l70.972-432.666h143.937l59.907 316.22c2.504 13.219 14.056 22.788 27.511 22.788h187.36c13.454 0 25.006-9.569 27.511-22.788l59.907-316.22h134.734l67.22 441.164z" />
<glyph unicode="&#xe908;" glyph-name="icon-transaction" d="M874.72 360.595h-716.384c-34.368 0-62.336-28.736-62.336-64.096v-60.8c0-29.056 19.008-54.016 45.568-61.6l6.528-2.4 10.24-0.096h9.952l0.384 0.16h432.928v-90.112c0-34.4 27.328-62.4 60.896-62.4 14.56 0 28.704 5.44 39.84 15.296l1.984 1.76 1.824 1.952 205.152 219.904 3.328 4.448c7.328 10.592 11.2 23.008 11.2 35.904 0 27.264-17.184 51.136-42.72 59.392l-8.384 2.688zM865.92 304.595c2.208-0.704 3.904-3.104 3.904-6.080 0-1.6-0.512-2.976-1.28-4.096l-0.992-1.056-202.368-216.928c-0.768-0.672-1.664-1.184-2.688-1.184-2.688 0-4.896 2.88-4.896 6.4v146.112h-498.688c-0.192-0.032-0.384-0.16-0.576-0.16-0.224 0-0.384 0.128-0.576 0.16-3.232 0.384-5.76 3.744-5.76 7.936v60.8c0 4.48 2.848 8.096 6.336 8.096h707.584zM359.315 832.003c-14.56 0-28.704-5.408-39.808-15.264l-2.016-1.792-1.824-1.952-205.184-219.936-3.328-4.448c-7.296-10.624-11.168-23.008-11.168-35.872 0-27.264 17.184-51.136 42.752-59.392l8.352-2.688h716.384c34.368 0 62.336 28.736 62.336 64.096v60.8c0 29.024-18.976 53.984-45.472 61.6l-6.592 2.4-10.272 0.096h-9.92l-0.416-0.16h-432.928v90.112c0 34.4-27.328 62.4-60.896 62.4zM359.315 776.003c2.72 0 4.896-2.88 4.896-6.4v-146.112h498.688c0.224 0.032 0.384 0.16 0.576 0.16 0.224 0 0.384-0.128 0.608-0.16 3.2-0.384 5.728-3.744 5.728-7.936v-60.8c0-4.48-2.816-8.096-6.336-8.096h-707.584c-2.208 0.704-3.904 3.104-3.904 6.080 0 1.6 0.512 2.976 1.312 4.096l0.96 1.056 202.368 216.928c0.768 0.672 1.664 1.184 2.688 1.184z" />
<glyph unicode="&#xe909;" glyph-name="icon-contact" d="M315.167 842.811l86.719-127.774c20.806-30.652 20.714-70.917-0.242-101.491l-20.806-30.312c-16.284-23.707-15.409-55.293 2.182-78.109 22.802-29.627 47.323-58.029 72.745-84.388 27.113-26.172 55.52-50.713 85.049-73.44 22.84-17.569 54.422-18.444 78.155-2.18l30.279 20.783c30.528 21.002 70.816 21.108 101.484 0.291l127.812-86.723c47.056-31.953 62.769-94.101 36.493-144.52l-7.848-15.060h-0.916c-50.422-78.554-151.325-109.701-238.258-71.057-115.369 51.3-221.68 120.364-316.257 205.493l-62.758 62.782c-84.177 93.647-153.232 199.945-204.442 315.216-41.025 92.287-3.425 200.284 86.073 246.982l6.087 3.176h0.542c49.135 21.721 107.365 5.37 137.908-39.668zM847.094 233.133l-127.808 86.72c-11.589 7.866-26.789 7.827-38.322-0.107l-30.321-20.812c-43.764-29.992-101.909-28.381-143.978 3.98-31.199 24.012-61.187 49.918-90.491 78.23-27.566 28.555-53.453 58.538-77.518 89.807-32.412 42.040-34.024 100.246-3.983 143.981l20.79 30.289c7.919 11.554 7.954 26.777 0.088 38.366l-86.726 127.785c-15.976 23.558-47.074 31.429-72.253 18.286l-1.842-0.962c-61.965-33.511-87.745-108.966-58.998-173.633 48.819-109.89 114.654-211.231 193.885-299.436l60.66-60.683c89.15-80.194 190.502-146.036 300.488-194.943 65.279-29.019 141.598-2.435 174.582 60.831l0.829 1.591c11.998 24.908 3.975 55.054-19.082 70.711z" />
<glyph unicode="&#xe90a;" glyph-name="file-document-outline" d="M256 874.667c-47.128 0-85.333-38.205-85.333-85.333v0-682.667c0-47.128 38.205-85.333 85.333-85.333v0h512c47.128 0 85.333 38.205 85.333 85.333v0 512l-256 256h-341.333zM256 789.333h298.667v-213.333h213.333v-469.333h-512v682.667zM341.333 448v-85.333h341.333v85.333h-341.333zM341.333 277.333v-85.333h213.333v85.333h-213.333z" />
<glyph unicode="&#xe90b;" glyph-name="lock-question" d="M512 917.333c-117.821 0-213.333-95.513-213.333-213.333v0-85.333h-42.667c-47.128 0-85.333-38.205-85.333-85.333v0-426.667c0-47.128 38.205-85.333 85.333-85.333v0h512c47.128 0 85.333 38.205 85.333 85.333v0 426.667c0 47.128-38.205 85.333-85.333 85.333v0h-42.667v85.333c0 117.821-95.513 213.333-213.333 213.333v0zM512 836.267c72.96 0 132.267-59.307 132.267-132.267v-85.333h-264.533v85.333c0 72.96 59.307 132.267 132.267 132.267zM520.107 512c40.107 0 72.107-8.96 95.147-26.453 23.040-17.92 34.56-41.813 34.56-71.68 0-18.773-6.4-35.413-18.773-51.2-12.373-15.36-28.587-27.307-48.213-36.267-11.093-6.4-18.347-12.8-22.187-20.053-3.84-7.68-5.973-17.067-5.973-29.013h-85.333c0 21.333 4.267 35.84 12.373 46.080 8.96 10.24 23.467 22.187 45.653 35.84 11.093 5.973 20.053 13.653 27.307 23.040 5.973 8.96 9.387 19.627 9.387 31.573 0 12.8-3.84 22.187-11.52 29.44-7.68 7.68-19.2 11.093-32.427 11.093-11.52 0-20.907-2.987-29.44-8.96-6.827-5.973-11.093-14.933-11.093-26.88h-84.053c-2.133 29.44 9.813 55.040 33.28 70.4 23.040 15.36 53.333 23.040 91.307 23.040zM469.333 234.667h85.333v-85.333h-85.333v85.333z" />
<glyph unicode="&#xe90c;" glyph-name="lock-reset" d="M538.88 874.667c235.947 0 427.093-192 427.093-426.667s-191.147-426.667-427.093-426.667c-149.76 0-280.747 77.653-357.12 194.987l67.413 53.333c60.16-97.707 167.253-162.987 290.133-162.987 188.513 0 341.333 152.82 341.333 341.333v0c0 188.513-152.82 341.333-341.333 341.333v0c-174.080 0-317.44-130.56-338.347-298.667h117.76l-159.573-159.147-159.147 159.147h114.773c21.333 215.467 203.093 384 424.107 384zM665.173 523.093c21.333-0.427 38.827-17.493 38.827-39.253v-196.693c0-21.333-17.493-39.253-39.253-39.253h-235.947c-21.76 0-39.253 17.92-39.253 39.253v196.693c0 21.76 17.493 38.827 38.827 39.253v43.093c0 65.28 53.333 118.187 118.187 118.187 65.28 0 118.613-52.907 118.613-118.187v-43.093zM546.56 624.64c-32 0-58.453-26.027-58.453-58.453v-43.093h117.333v43.093c0 32.427-26.453 58.453-58.88 58.453z" />
<glyph unicode="&#xe90d;" glyph-name="cash" d="M128 704h768v-512h-768v512zM512 576c70.692 0 128-57.308 128-128v0c0-70.692-57.308-128-128-128v0c-70.692 0-128 57.308-128 128v0c0 70.692 57.308 128 128 128v0zM298.667 618.667c0-47.128-38.205-85.333-85.333-85.333v0-170.667c47.128 0 85.333-38.205 85.333-85.333v0h426.667c0 47.128 38.205 85.333 85.333 85.333v0 170.667c-47.128 0-85.333 38.205-85.333 85.333v0h-426.667z" />
<glyph unicode="&#xe90e;" glyph-name="coins" d="M640 789.333c188.513 0 341.333-152.82 341.333-341.333v0c0-188.513-152.82-341.333-341.333-341.333v0c-188.513 0-341.333 152.82-341.333 341.333v0c0 188.513 152.82 341.333 341.333 341.333v0zM640 192c141.385 0 256 114.615 256 256v0c0 141.385-114.615 256-256 256v0c-141.385 0-256-114.615-256-256v0c0-141.385 114.615-256 256-256v0zM128 448c0-111.36 71.253-206.080 170.667-241.067v-89.173c-147.2 37.973-256 171.093-256 330.24s108.8 292.267 256 330.24v-89.173c-99.413-34.987-170.667-129.707-170.667-241.067z" />
<glyph unicode="&#xe90f;" glyph-name="content-copy" d="M810.667 64h-469.333v597.333h469.333zM810.667 746.667h-469.333c-47.128 0-85.333-38.205-85.333-85.333v0-597.333c0-47.128 38.205-85.333 85.333-85.333v0h469.333c47.128 0 85.333 38.205 85.333 85.333v0 597.333c0 47.128-38.205 85.333-85.333 85.333v0zM682.667 917.333h-512c-47.128 0-85.333-38.205-85.333-85.333v0-597.333h85.333v597.333h512v85.333z" />
<glyph unicode="&#xe910;" glyph-name="file-check-outline" d="M597.333 874.667l256-256v-512c0-47.128-38.205-85.333-85.333-85.333v0h-512c-47.128 0-85.333 38.205-85.333 85.333v0 682.667c0 47.128 38.205 85.333 85.333 85.333v0h341.333zM768 106.667v469.333h-213.333v213.333h-298.667v-682.667h512zM477.867 172.373l-117.333 128 49.493 49.493 67.84-67.413 152.747 152.747 49.92-60.16-202.667-202.667z" />
<glyph unicode="&#xe911;" glyph-name="file-document" d="M554.667 576h234.667l-234.667 234.667v-234.667zM256 874.667h341.333l256-256v-512c0-47.128-38.205-85.333-85.333-85.333v0h-512c-47.36 0-85.333 38.4-85.333 85.333v682.667c0 47.36 37.973 85.333 85.333 85.333zM640 192v85.333h-384v-85.333h384zM768 362.667v85.333h-512v-85.333h512z" />
<glyph unicode="&#xe912;" glyph-name="triangle" d="M42.667 64h938.667l-469.333 810.667z" />
<glyph unicode="&#xe913;" glyph-name="file-document-edit-outline" d="M341.333 448h341.333v-85.333h-341.333v85.333zM426.667 106.667h-170.667v682.667h298.667v-213.333h213.333v-132.267l85.333 85.333v89.6l-256 256h-341.333c-47.128 0-85.333-38.205-85.333-85.333v0-682.667c0-47.128 38.205-85.333 85.333-85.333v0h170.667v85.333zM341.333 192h174.933l38.4 38.4v46.933h-213.333v-85.333zM861.867 405.333c4.267 0 12.8-4.267 17.067-8.533l55.467-55.467c8.533-8.533 8.533-25.6 0-34.133l-42.667-42.667-89.6 89.6 42.667 42.667c4.267 4.267 8.533 8.533 17.067 8.533zM861.867 238.933l-260.267-260.267h-89.6v89.6l260.267 260.267 89.6-89.6z" />
<glyph unicode="&#xe914;" glyph-name="pin" d="M682.667 448v341.333h42.667v85.333h-426.667v-85.333h42.667v-341.333l-85.333-85.333v-85.333h221.867v-256h68.267v256h221.867v85.333l-85.333 85.333z" />
<glyph unicode="&#xe915;" glyph-name="lead-pencil" d="M718.507 843.52c-16.64 0-32.853-6.4-45.653-18.773l-90.453-90.453 226.133-226.56 90.453 89.6c25.6 26.027 25.6 66.56 0 91.307l-135.253 136.107c-12.8 12.373-29.013 18.773-45.227 18.773zM552.107 704l-345.6-346.027 109.227-11.947 7.68-97.707 97.28-7.253 12.373-109.227 345.6 346.027zM181.333 318.293l-74.667-285.44 285.867 76.373-10.24 92.16-98.56 7.253-7.68 98.987z" />
<glyph unicode="&#xe916;" glyph-name="magnify" d="M405.333 832c153.167 0 277.333-124.166 277.333-277.333v0c0-68.693-25.173-131.84-66.56-180.48l11.52-11.52h33.707l213.333-213.333-64-64-213.333 213.333v33.707l-11.52 11.52c-48.64-41.387-111.787-66.56-180.48-66.56-153.167 0-277.333 124.166-277.333 277.333v0c0 153.167 124.166 277.333 277.333 277.333v0zM405.333 746.667c-106.667 0-192-85.333-192-192s85.333-192 192-192c106.667 0 192 85.333 192 192s-85.333 192-192 192z" />
<glyph unicode="&#xe917;" glyph-name="account-group-outline" d="M512 746.667c-82.475 0-149.333-66.859-149.333-149.333v0c0-82.475 66.859-149.333 149.333-149.333v0c82.475 0 149.333 66.859 149.333 149.333v0c0 82.475-66.859 149.333-149.333 149.333v0zM512 661.333c35.346 0 64-28.654 64-64v0c0-35.346-28.654-64-64-64v0c-35.346 0-64 28.654-64 64v0c0 35.346 28.654 64 64 64v0zM234.667 618.667c-58.91 0-106.667-47.756-106.667-106.667v0c0-40.107 22.613-74.667 55.040-93.013 15.36-8.533 32.853-13.653 51.627-13.653s36.267 5.12 51.627 13.653c15.787 8.96 29.013 21.76 38.827 37.12-31.147 40.533-47.787 90.027-47.787 141.227 0 3.84 0 8.107 0 11.947-12.8 5.973-27.307 9.387-42.667 9.387zM789.333 618.667c-15.36 0-29.867-3.413-42.667-9.387 0-3.84 0-8.107 0-11.947 0-51.2-16.64-100.693-47.787-141.227 5.12-8.107 10.667-14.507 17.067-20.907 6.827-6.4 13.653-11.947 21.76-16.213 15.36-8.533 32.853-13.653 51.627-13.653s36.267 5.12 51.627 13.653c32.427 18.347 55.040 52.907 55.040 93.013 0 58.91-47.756 106.667-106.667 106.667v0zM512 362.667c-99.84 0-298.667-49.92-298.667-149.333v-64h597.333v64c0 99.413-198.827 149.333-298.667 149.333zM200.96 339.2c-82.347-9.813-200.96-51.627-200.96-125.867v-64h128v82.347c0 43.093 29.44 78.933 72.96 107.52zM823.040 339.2c43.52-28.587 72.96-64.427 72.96-107.52v-82.347h128v64c0 74.24-118.613 116.053-200.96 125.867zM512 277.333c65.28 0 138.24-21.333 180.48-42.667h-360.96c42.24 21.333 115.2 42.667 180.48 42.667z" />
<glyph unicode="&#xe918;" glyph-name="account-group" d="M512 725.333c82.475 0 149.333-66.859 149.333-149.333v0c0-82.475-66.859-149.333-149.333-149.333v0c-82.475 0-149.333 66.859-149.333 149.333v0c0 82.475 66.859 149.333 149.333 149.333v0zM213.333 618.667c23.893 0 46.080-6.4 65.28-17.92-6.4-61.013 11.52-121.6 48.213-168.96-21.333-40.96-64-69.12-113.493-69.12-70.692 0-128 57.308-128 128v0c0 70.692 57.308 128 128 128v0zM810.667 618.667c70.692 0 128-57.308 128-128v0c0-70.692-57.308-128-128-128v0c-49.493 0-92.16 28.16-113.493 69.12 36.693 47.36 54.613 107.947 48.213 168.96 19.2 11.52 41.387 17.92 65.28 17.92zM234.667 181.333c0 88.32 124.16 160 277.333 160s277.333-71.68 277.333-160v-74.667h-554.667v74.667zM0 106.667v64c0 59.307 80.64 109.227 189.867 123.733-25.173-29.013-40.533-69.12-40.533-113.067v-74.667h-149.333zM1024 106.667h-149.333v74.667c0 43.947-15.36 84.053-40.533 113.067 109.227-14.507 189.867-64.427 189.867-123.733v-64z" />
<glyph unicode="&#xe919;" glyph-name="home" d="M426.667 106.667v256h170.667v-256h213.333v341.333h128l-426.667 384-426.667-384h128v-341.333h213.333z" />
<glyph unicode="&#xe91a;" glyph-name="heart-broken" d="M512 49.067l-61.867 56.32c-219.733 199.253-364.8 331.093-364.8 491.947 0 131.84 103.253 234.667 234.667 234.667 28.587 0 56.32-5.12 82.773-14.080l151.893-256.853-170.667-213.333 128-298.667zM704 832c131.413 0 234.667-102.827 234.667-234.667 0-160.853-145.067-292.693-364.8-491.947l-61.867-56.32-42.667 298.667 192 213.333-113.067 216.747c43.52 34.133 98.987 54.187 155.733 54.187z" />
<glyph unicode="&#xe91b;" glyph-name="clock" d="M512 874.667c-235.641 0-426.667-191.025-426.667-426.667v0c0-235.641 191.025-426.667 426.667-426.667v0c235.641 0 426.667 191.025 426.667 426.667v0c0 235.641-191.025 426.667-426.667 426.667v0zM691.2 268.8l-221.867 136.533v256h64v-221.867l192-115.2-34.133-55.467z" />
<glyph unicode="&#xe91c;" glyph-name="alert-circle" d="M554.667 405.333h-85.333v256h85.333zM554.667 234.667h-85.333v85.333h85.333zM512 874.667c-235.641 0-426.667-191.025-426.667-426.667v0c0-235.641 191.025-426.667 426.667-426.667v0c235.641 0 426.667 191.025 426.667 426.667v0c0 235.641-191.025 426.667-426.667 426.667v0z" />
<glyph unicode="&#xe91d;" glyph-name="account-convert" d="M320 42.667l57.6 57.173 162.56-162.56-28.16-1.28c-268.373 0-488.107 206.507-509.867 469.333h64c15.36-160.427 115.2-296.107 253.867-362.667zM704 853.333l-57.6-57.173-162.56 162.56 28.16 1.28c268.373 0 488.107-206.507 509.867-469.333h-64c-15.36 160.427-115.2 295.68-253.867 362.667zM256 234.667c0 85.333 170.667 132.267 256 132.267s256-46.933 256-132.267v-42.667h-512v42.667zM640 576c0-70.692-57.308-128-128-128v0c-70.692 0-128 57.308-128 128v0c0 70.692 57.308 128 128 128v0c70.692 0 128-57.308 128-128v0z" />
<glyph unicode="&#xe91e;" glyph-name="currency-usd" d="M298.667 320h85.333c0-46.080 58.453-85.333 128-85.333s128 39.253 128 85.333c0 46.933-44.373 64-138.24 86.613-90.453 22.613-203.093 50.773-203.093 169.387 0 76.373 62.72 141.227 149.333 162.987v93.013h128v-93.013c86.613-21.76 149.333-86.613 149.333-162.987h-85.333c0 46.080-58.453 85.333-128 85.333s-128-39.253-128-85.333c0-46.933 44.373-64 138.24-86.613 90.453-22.613 203.093-50.773 203.093-169.387 0-76.373-62.72-141.227-149.333-162.987v-93.013h-128v93.013c-86.613 21.76-149.333 86.613-149.333 162.987z" />
<glyph unicode="&#xe91f;" glyph-name="flash" d="M298.667 874.667v-469.333h128v-384l298.667 512h-170.667l170.667 341.333h-426.667z" />
<glyph unicode="&#xe920;" glyph-name="account-tie" d="M512 832c94.257 0 170.667-76.41 170.667-170.667v0c0-94.257-76.41-170.667-170.667-170.667v0c-94.257 0-170.667 76.41-170.667 170.667v0c0 94.257 76.41 170.667 170.667 170.667v0zM682.667 382.293c0-45.227-11.947-150.613-93.44-268.373l-34.56 206.080 40.107 80.213c-26.453 2.987-54.187 5.12-82.773 5.12s-56.32-2.133-82.773-5.12l40.107-80.213-34.56-206.080c-81.493 117.76-93.44 223.147-93.44 268.373-101.973-29.867-170.667-83.627-170.667-147.627v-170.667h682.667v170.667c0 64-68.267 117.76-170.667 147.627z" />
<glyph unicode="&#xe921;" glyph-name="clock-outline" d="M512 106.667c188.513 0 341.333 152.82 341.333 341.333v0c0 188.513-152.82 341.333-341.333 341.333v0c-188.513 0-341.333-152.82-341.333-341.333v0c0-188.513 152.82-341.333 341.333-341.333v0zM512 874.667c235.641 0 426.667-191.025 426.667-426.667v0c0-235.641-191.025-426.667-426.667-426.667v0c-235.947 0-426.667 192-426.667 426.667 0 235.641 191.025 426.667 426.667 426.667v0zM533.333 661.333v-224l192-113.92-32-52.48-224 134.4v256h64z" />
<glyph unicode="&#xe922;" glyph-name="email-outline" d="M170.667 789.333h682.667c47.128 0 85.333-38.205 85.333-85.333v0-512c0-47.128-38.205-85.333-85.333-85.333v0h-682.667c-47.36 0-85.333 38.4-85.333 85.333v512c0 47.36 37.973 85.333 85.333 85.333zM512 490.667l341.333 213.333h-682.667l341.333-213.333zM170.667 192h682.667v410.88l-341.333-212.907-341.333 212.907v-410.88z" />
<glyph unicode="&#xe923;" glyph-name="checkbox-blank-outline" d="M810.667 832h-597.333c-47.36 0-85.333-37.973-85.333-85.333v-597.333c0-47.128 38.205-85.333 85.333-85.333v0h597.333c47.128 0 85.333 38.205 85.333 85.333v0 597.333c0 47.36-38.4 85.333-85.333 85.333zM810.667 746.667v-597.333h-597.333v597.333h597.333z" />
<glyph unicode="&#xe924;" glyph-name="cloud-upload-outline" d="M825.6 531.627c-29.013 147.2-158.293 257.707-313.6 257.707-123.307 0-230.4-69.973-283.733-172.373-128.427-13.653-228.267-122.453-228.267-254.293 0-141.385 114.615-256 256-256v0h554.667c117.821 0 213.333 95.513 213.333 213.333v0c0 112.64-87.467 203.947-198.4 211.627zM810.667 192h-554.667c-94.257 0-170.667 76.41-170.667 170.667v0c0 87.467 65.28 160.427 151.893 169.387l45.653 4.693 21.333 40.533c40.533 78.080 119.893 126.72 207.787 126.72 111.787 0 208.213-79.36 229.973-189.013l12.8-64 65.28-4.693c66.56-4.267 118.613-60.16 118.613-126.293 0-70.692-57.308-128-128-128v0zM341.333 405.333h108.8v-128h123.733v128h108.8l-170.667 170.667-170.667-170.667z" />
<glyph unicode="&#xe925;" glyph-name="office-building" d="M213.333 832v-768h256v149.333h85.333v-149.333h256v768h-597.333zM298.667 746.667h85.333v-85.333h-85.333v85.333zM469.333 746.667h85.333v-85.333h-85.333v85.333zM640 746.667h85.333v-85.333h-85.333v85.333zM298.667 576h85.333v-85.333h-85.333v85.333zM469.333 576h85.333v-85.333h-85.333v85.333zM640 576h85.333v-85.333h-85.333v85.333zM298.667 405.333h85.333v-85.333h-85.333v85.333zM469.333 405.333h85.333v-85.333h-85.333v85.333zM640 405.333h85.333v-85.333h-85.333v85.333zM298.667 234.667h85.333v-85.333h-85.333v85.333zM640 234.667h85.333v-85.333h-85.333v85.333z" />
<glyph unicode="&#xe926;" glyph-name="link-variant" d="M451.84 387.84c17.493-16.64 17.493-43.947 0-60.587-16.64-16.64-43.947-16.64-60.587 0-83.2 83.2-83.2 218.453 0 301.653v0l151.040 151.040c83.2 83.2 218.453 83.2 301.653 0s83.2-218.453 0-301.653l-63.573-63.573c0.427 34.987-5.12 69.973-17.067 103.253l20.053 20.48c50.347 49.92 50.347 130.987 0 180.907-49.92 50.347-130.987 50.347-180.907 0l-150.613-150.613c-50.347-49.92-50.347-130.987 0-180.907zM572.16 568.747c16.64 16.64 43.947 16.64 60.587 0 83.2-83.2 83.2-218.453 0-301.653v0l-151.040-151.040c-83.2-83.2-218.453-83.2-301.653 0s-83.2 218.453 0 301.653l63.573 63.573c-0.427-34.987 5.12-69.973 17.067-103.68l-20.053-20.053c-50.347-49.92-50.347-130.987 0-180.907 49.92-50.347 130.987-50.347 180.907 0l150.613 150.613c50.347 49.92 50.347 130.987 0 180.907-17.493 16.64-17.493 43.947 0 60.587z" />
<glyph unicode="&#xe927;" glyph-name="instagram" d="M332.8 874.667h358.4c136.533 0 247.467-110.933 247.467-247.467v-358.4c0-136.672-110.795-247.467-247.467-247.467v0h-358.4c-136.533 0-247.467 110.933-247.467 247.467v358.4c0 136.672 110.795 247.467 247.467 247.467v0zM324.267 789.333c-84.831 0-153.6-68.769-153.6-153.6v0-375.467c0-84.907 68.693-153.6 153.6-153.6h375.467c84.831 0 153.6 68.769 153.6 153.6v0 375.467c0 84.907-68.693 153.6-153.6 153.6h-375.467zM736 725.333c29.455 0 53.333-23.878 53.333-53.333v0c0-29.455-23.878-53.333-53.333-53.333v0c-29.455 0-53.333 23.878-53.333 53.333v0c0 29.455 23.878 53.333 53.333 53.333v0zM512 661.333c117.821 0 213.333-95.513 213.333-213.333v0c0-117.821-95.513-213.333-213.333-213.333v0c-117.821 0-213.333 95.513-213.333 213.333v0c0 117.821 95.513 213.333 213.333 213.333v0zM512 576c-70.692 0-128-57.308-128-128v0c0-70.692 57.308-128 128-128v0c70.692 0 128 57.308 128 128v0c0 70.692-57.308 128-128 128v0z" />
<glyph unicode="&#xe928;" glyph-name="pencil-plus-outline" d="M601.6 576l38.4-38.4-388.267-388.267h-38.4v38.4l388.267 388.267zM755.2 832c-8.533 0-21.333-4.267-29.867-12.8l-76.8-76.8 157.867-162.133 76.8 81.067c17.067 17.067 17.067 42.667 0 59.733l-98.133 98.133c-8.533 8.533-21.333 12.8-29.867 12.8zM601.6 695.467l-473.6-469.333v-162.133h162.133l469.333 473.6-157.867 157.867zM298.667 874.667v-128h128v-85.333h-128v-128h-85.333v128h-128v85.333h128v128h85.333z" />
<glyph unicode="&#xe929;" glyph-name="pin-outline" d="M682.667 448v341.333h42.667v85.333h-426.667v-85.333h42.667v-341.333l-85.333-85.333v-85.333h221.867v-256h68.267v256h221.867v85.333l-85.333 85.333zM375.467 362.667l51.2 51.2v375.467h170.667v-375.467l51.2-51.2h-273.067z" />
<glyph unicode="&#xe92a;" glyph-name="menu" d="M128 704h768v-85.333h-768v85.333zM128 490.667h768v-85.333h-768v85.333zM128 277.333h768v-85.333h-768v85.333z" />
<glyph unicode="&#xe92b;" glyph-name="image-multiple" d="M938.667 277.333v512c0 47.128-38.205 85.333-85.333 85.333v0h-512c-47.128 0-85.333-38.205-85.333-85.333v0-512c0-47.128 38.205-85.333 85.333-85.333v0h512c47.128 0 85.333 38.205 85.333 85.333v0zM469.333 448l86.613-115.627 126.72 158.293 170.667-213.333h-512zM85.333 704v-597.333c0-47.128 38.205-85.333 85.333-85.333v0h597.333v85.333h-597.333v597.333z" />
<glyph unicode="&#xe92c;" glyph-name="star1" d="M512 223.147l263.68-159.147-69.973 299.947 232.96 201.813-306.773 26.453-119.893 282.453-119.893-282.453-306.773-26.453 232.533-201.813-69.547-299.947 263.68 159.147z" />
<glyph unicode="&#xe92d;" glyph-name="account-multiple" d="M682.667 405.333c-12.373 0-26.453 0-41.387-2.133 49.493-35.84 84.053-83.2 84.053-147.2v-106.667h256v106.667c0 99.413-199.253 149.333-298.667 149.333zM341.333 405.333c-99.413 0-298.667-49.92-298.667-149.333v-106.667h597.333v106.667c0 99.413-199.253 149.333-298.667 149.333zM341.333 490.667c70.692 0 128 57.308 128 128v0c0 70.692-57.308 128-128 128v0c-70.692 0-128-57.308-128-128v0c0-70.692 57.308-128 128-128v0zM682.667 490.667c70.692 0 128 57.308 128 128v0c0 70.692-57.308 128-128 128v0c-70.692 0-128-57.308-128-128v0c0-70.692 57.308-128 128-128v0z" />
<glyph unicode="&#xe92e;" glyph-name="dots-horizontal" d="M682.667 448c0 47.128 38.205 85.333 85.333 85.333v0c47.128 0 85.333-38.205 85.333-85.333v0c0-47.128-38.205-85.333-85.333-85.333v0c-47.128 0-85.333 38.205-85.333 85.333v0zM426.667 448c0 47.128 38.205 85.333 85.333 85.333v0c47.128 0 85.333-38.205 85.333-85.333v0c0-47.128-38.205-85.333-85.333-85.333v0c-47.128 0-85.333 38.205-85.333 85.333v0zM170.667 448c0 47.128 38.205 85.333 85.333 85.333v0c47.128 0 85.333-38.205 85.333-85.333v0c0-47.128-38.205-85.333-85.333-85.333v0c-47.128 0-85.333 38.205-85.333 85.333v0z" />
<glyph unicode="&#xe92f;" glyph-name="facebook" d="M725.333 874.667v0 0-170.667h-85.333c-29.44 0-42.667-34.56-42.667-64v-106.667h128v-170.667h-128v-341.333h-170.667v341.333h-128v170.667h128v170.667c0 94.257 76.41 170.667 170.667 170.667v0h128z" />
<glyph unicode="&#xe930;" glyph-name="chat-processing" d="M512 832c234.667 0 426.667-152.747 426.667-341.333s-192-341.333-426.667-341.333c-52.907 0-103.68 7.68-150.613 21.333-124.587-106.667-276.053-106.667-276.053-106.667 99.413 99.413 115.2 166.4 117.333 192-72.533 61.013-117.333 143.787-117.333 234.667 0 188.587 192 341.333 426.667 341.333zM725.333 448v85.333h-85.333v-85.333h85.333zM554.667 448v85.333h-85.333v-85.333h85.333zM384 448v85.333h-85.333v-85.333h85.333z" />
<glyph unicode="&#xe931;" glyph-name="logout" d="M682.667 234.667v128h-298.667v170.667h298.667v128l213.333-213.333-213.333-213.333zM597.333 874.667c47.128 0 85.333-38.205 85.333-85.333v0-85.333h-85.333v85.333h-384v-682.667h384v85.333h85.333v-85.333c0-47.128-38.205-85.333-85.333-85.333v0h-384c-47.128 0-85.333 38.205-85.333 85.333v0 682.667c0 47.128 38.205 85.333 85.333 85.333v0h384z" />
<glyph unicode="&#xe932;" d="M365.824 898.048c-115.968-39.68-214.784-126.464-269.824-236.288-19.2-37.888-33.024-78.080-41.472-119.808-20.992-103.424-6.4-213.76 41.216-307.968 30.976-61.44 75.52-116.224 129.28-158.976 50.944-40.448 110.080-70.656 173.056-87.296 79.36-21.248 163.84-20.736 243.712-2.56 72.192 16.64 140.544 51.2 195.072 101.376 57.6 52.992 98.816 122.624 120.576 197.632 23.808 81.664 26.88 168.96 12.032 252.928-149.248 0-298.752 0-448 0 0-61.952 0-123.904 0-185.856 86.528 0 173.056 0 259.584 0-9.984-59.392-45.312-113.664-95.232-147.2-31.488-21.248-67.584-34.816-104.96-41.472-37.376-6.4-76.288-7.168-113.664 0.256-38.144 7.68-74.24 23.552-105.984 45.824-50.688 35.584-89.344 87.552-109.056 146.176-20.224 59.648-20.48 125.952 0 185.344 14.336 41.984 37.888 80.64 69.12 112.384 38.4 39.424 88.32 67.584 142.336 79.104 46.080 9.728 94.72 7.936 139.776-5.632 38.4-11.52 73.728-32.768 102.656-60.416 29.184 29.184 58.368 58.368 87.552 87.552 15.36 15.616 31.488 30.72 46.336 46.848-44.288 40.96-96.512 73.984-153.344 94.976-102.4 37.888-217.6 38.656-320.768 3.072z" />
<glyph unicode="&#xe933;" d="M365.824 898.048c102.912 35.584 218.368 34.816 320.768-2.816 56.832-20.992 108.8-53.76 153.344-94.976-14.848-16.128-30.976-31.232-46.336-46.848-29.184-29.184-58.368-58.368-87.552-87.552-28.928 27.648-64.256 48.64-102.656 60.416-45.056 13.568-93.696 15.616-139.776 5.632-53.76-11.52-103.68-39.68-142.336-79.104-31.232-31.488-54.784-70.4-69.12-112.384-51.968 40.448-103.936 80.64-156.16 121.088 55.040 110.080 153.856 196.864 269.824 236.544z" />
<glyph unicode="&#xe934;" d="M54.784 542.208c8.448 41.472 22.272 81.92 41.472 119.808 51.968-40.448 103.936-80.64 156.16-121.088-20.48-59.648-20.48-125.952 0-185.344-51.968-40.448-103.936-80.896-155.904-121.088-48.128 93.952-62.72 204.288-41.728 307.712z" />
<glyph unicode="&#xe935;" d="M521.472 537.344c149.248 0 298.752 0 448 0 14.848-83.712 11.52-171.008-12.032-252.928-21.76-75.008-62.976-144.64-120.576-197.632-50.432 39.168-100.864 78.336-151.296 117.504 49.92 33.536 85.248 87.808 95.232 147.2-86.528 0-173.056 0-259.584 0 0.256 61.952 0.256 123.904 0.256 185.856z" />
<glyph unicode="&#xe936;" d="M96 234.24c51.968 40.192 103.936 80.64 155.904 121.088 19.968-58.624 58.368-110.592 109.056-146.176 31.744-22.272 68.096-38.144 105.984-45.824 37.376-7.68 76.032-6.656 113.664-0.256 37.376 6.656 73.472 20.224 104.96 41.472 50.432-39.168 100.864-78.336 151.296-117.504-54.528-50.432-122.88-84.736-195.072-101.376-79.872-18.176-164.352-18.688-243.712 2.56-62.976 16.64-122.112 46.592-173.056 87.296-53.504 42.496-98.048 97.28-129.024 158.72z" />
<glyph unicode="&#xe937;" glyph-name="square-edit-outline" d="M213.333 832c-47.36 0-85.333-37.973-85.333-85.333v-597.333c0-47.128 38.205-85.333 85.333-85.333v0h597.333c47.128 0 85.333 38.205 85.333 85.333v0 298.667h-85.333v-298.667h-597.333v597.333h298.667v85.333h-298.667zM758.613 789.333c-7.253 0-14.933-2.987-20.48-8.533l-52.053-51.627 106.667-106.667 52.053 51.627c11.093 11.093 11.093 29.867 0 40.533l-66.133 66.133c-5.547 5.547-12.8 8.533-20.053 8.533zM655.787 698.88l-314.453-314.88v-106.667h106.667l314.453 314.88-106.667 106.667z" />
<glyph unicode="&#xe938;" glyph-name="minus-circle" d="M725.333 405.333h-426.667v85.333h426.667zM512 874.667c-235.641 0-426.667-191.025-426.667-426.667v0c0-235.641 191.025-426.667 426.667-426.667v0c235.641 0 426.667 191.025 426.667 426.667v0c0 235.641-191.025 426.667-426.667 426.667v0z" />
<glyph unicode="&#xe939;" glyph-name="check1" d="M896 661.333l-512-512-234.667 234.667 60.16 60.16 174.507-174.080 451.84 451.413 60.16-60.16z" />
<glyph unicode="&#xe93a;" glyph-name="delete1" d="M810.667 789.333h-149.333l-42.667 42.667h-213.333l-42.667-42.667h-149.333v-85.333h597.333zM256 149.333c0-47.128 38.205-85.333 85.333-85.333v0h341.333c47.128 0 85.333 38.205 85.333 85.333v0 512h-512v-512z" />
<glyph unicode="&#xe93b;" glyph-name="account-heart" d="M640 362.667c-115.2 0-341.333-55.467-341.333-170.667v-85.333h682.667v85.333c0 115.2-226.133 170.667-341.333 170.667zM640 448c94.257 0 170.667 76.41 170.667 170.667v0c0 94.257-76.41 170.667-170.667 170.667v0c-94.257 0-170.667-76.41-170.667-170.667v0c0-94.257 76.41-170.667 170.667-170.667v0zM213.333 320l-25.6 21.333c-85.333 81.067-145.067 132.267-145.067 196.267 0 51.2 42.667 93.867 93.867 93.867 29.867 0 59.733-12.8 76.8-34.133 17.067 21.333 46.933 34.133 76.8 34.133 51.2 0 93.867-38.4 93.867-93.867 0-64-59.733-115.2-145.067-196.267l-25.6-21.333z" />
<glyph unicode="&#xe93c;" glyph-name="finance" d="M128 405.333h170.667v-426.667h-170.667v426.667zM426.667 362.667h170.667v-384h-170.667v384zM725.333 576h170.667v-597.333h-170.667v597.333zM725.333 917.333h170.667v-170.667h-42.667v82.773l-342.613-342.613-169.387 169.387-196.267-196.267-45.227 45.227 241.493 241.493 169.387-169.387 297.387 297.387h-82.773v42.667z" />
<glyph unicode="&#xe93d;" glyph-name="icon_reduce_price" d="M147.862 604.823v-105.072h42.498c43.631 0 67.43 18.947 67.43 55.694s-23.799 49.378-67.43 49.378h-42.498zM357.517 297.646h-93.495l-70.829 134.928h-45.331v-134.928h-83.862v374.354h133.159c78.196 0 142.792-27.56 142.792-116.555 0-55.12-26.632-90.144-65.73-107.943l83.295-149.856zM486.71 320.612l2.833-45.359v-83.254h-83.295v390.431h67.996l5.666-28.134h2.267c22.099 20.096 50.431 35.024 79.896 35.024 67.996 0 109.927-56.842 109.927-144.689 0-97.608-57.797-153.876-118.427-153.876-24.365 0-47.031 10.909-66.863 29.856zM489.543 378.029c14.733-13.78 30.598-18.373 44.764-18.373 28.898 0 52.13 25.263 52.13 83.828 0 51.1-15.299 76.938-48.731 76.938-16.999 0-31.732-8.038-48.164-25.837v-116.555zM822.85 631.61h146.299v40.39h-146.299v-40.39zM822.85 550.776h146.299v40.39h-146.299v-40.39zM822.85 469.942h146.299v40.39h-146.299v-40.39zM768 429.499l128.048-141.499 127.952 141.499h-256z" />
<glyph unicode="&#xe93e;" glyph-name="printer-3d" d="M810.667 704c23.564 0 42.667 19.103 42.667 42.667v0c0 23.564-19.103 42.667-42.667 42.667v0c-23.564 0-42.667-19.103-42.667-42.667v0c0-23.564 19.103-42.667 42.667-42.667v0zM810.667 874.667c70.692 0 128-57.308 128-128v0-256h-170.667v170.667h-512v-170.667h-170.667v256c0 70.692 57.308 128 128 128v0h597.333zM768 181.333c0-16.213-8.96-30.293-22.613-37.547l-209.067-114.773c-7.253-5.12-15.36-7.68-24.32-7.68s-17.493 2.56-24.32 7.68l-209.067 114.773c-13.653 7.253-22.613 21.333-22.613 37.547v224c0 16.213 8.96 30.293 22.613 37.547l209.067 104.107c6.827 5.12 15.36 7.68 24.32 7.68s17.067-2.56 24.32-7.68l209.067-104.107c13.653-7.253 22.613-21.333 22.613-37.547v-224zM512 462.933l-126.293-57.6 126.293-68.267 126.293 68.267-126.293 57.6zM341.333 206.507l128-69.547v126.293l-128 69.12v-125.867zM682.667 206.507v125.867l-128-69.12v-126.293l128 69.547z" />
<glyph unicode="&#xe93f;" glyph-name="calculator" d="M298.667 874.667h426.667c47.128 0 85.333-38.205 85.333-85.333v0-682.667c0-47.128-38.205-85.333-85.333-85.333v0h-426.667c-47.128 0-85.333 38.205-85.333 85.333v0 682.667c0 47.128 38.205 85.333 85.333 85.333v0zM298.667 789.333v-170.667h426.667v170.667h-426.667zM298.667 533.333v-85.333h85.333v85.333h-85.333zM469.333 533.333v-85.333h85.333v85.333h-85.333zM640 533.333v-85.333h85.333v85.333h-85.333zM298.667 362.667v-85.333h85.333v85.333h-85.333zM469.333 362.667v-85.333h85.333v85.333h-85.333zM640 362.667v-85.333h85.333v85.333h-85.333zM298.667 192v-85.333h85.333v85.333h-85.333zM469.333 192v-85.333h85.333v85.333h-85.333zM640 192v-85.333h85.333v85.333h-85.333z" />
<glyph unicode="&#xe940;" glyph-name="cart-arrow-down" d="M426.667 960v-170.667h-85.333l170.667-170.667 170.667 170.667h-85.333v170.667zM42.667 874.667v-85.333h85.333l153.6-323.84-57.6-104.533c-6.827-11.947-10.667-26.027-10.667-40.96 0-47.128 38.205-85.333 85.333-85.333v0h512v85.333h-494.080c-5.547 0-10.667 4.693-10.667 10.667l1.28 5.12 38.4 69.547h317.867c32 0 60.16 17.493 74.667 43.947l164.693 299.093-74.24 40.96h-0.427l-46.933-85.333-117.76-213.333h-299.52l-5.547 11.52-95.573 201.813-40.533 85.333-40.107 85.333zM298.667 192c-47.128 0-85.333-38.205-85.333-85.333v0c0-47.128 38.205-85.333 85.333-85.333v0c47.128 0 85.333 38.205 85.333 85.333v0c0 47.128-38.205 85.333-85.333 85.333v0zM725.333 192c-47.128 0-85.333-38.205-85.333-85.333v0c0-47.128 38.205-85.333 85.333-85.333v0c47.128 0 85.333 38.205 85.333 85.333v0c0 47.128-38.205 85.333-85.333 85.333v0z" />
<glyph unicode="&#xe941;" glyph-name="account-switch" d="M682.667 576c99.413 0 298.667-49.92 298.667-149.333v-106.667h-256v106.667c0 64-34.56 111.36-83.627 147.2l40.96 2.133zM341.333 576c99.413 0 298.667-49.92 298.667-149.333v-106.667h-597.333v106.667c0 99.413 199.253 149.333 298.667 149.333zM341.333 661.333c-70.692 0-128 57.308-128 128v0c0 70.692 57.308 128 128 128v0c70.692 0 128-57.308 128-128v0c0-70.692-57.308-128-128-128v0zM682.667 661.333c-70.692 0-128 57.308-128 128v0c0 70.692 57.308 128 128 128v0c70.692 0 128-57.308 128-128v0c0-70.692-57.308-128-128-128v0zM384 245.333v-96h256v96l138.667-138.667-138.667-138.667v96h-256v-96l-138.667 138.667 138.667 138.667z" />
<glyph unicode="&#xe942;" glyph-name="trash-can-outline" d="M384 832v-42.667h-213.333v-85.333h42.667v-554.667c0-47.128 38.205-85.333 85.333-85.333v0h426.667c47.128 0 85.333 38.205 85.333 85.333v0 554.667h42.667v85.333h-213.333v42.667h-256zM298.667 704h426.667v-554.667h-426.667v554.667zM384 618.667v-384h85.333v384h-85.333zM554.667 618.667v-384h85.333v384h-85.333z" />
<glyph unicode="&#xe943;" glyph-name="trash-can" d="M384 832v-42.667h-213.333v-85.333h42.667v-554.667c0-47.128 38.205-85.333 85.333-85.333v0h426.667c47.128 0 85.333 38.205 85.333 85.333v0 554.667h42.667v85.333h-213.333v42.667h-256zM384 618.667h85.333v-384h-85.333v384zM554.667 618.667h85.333v-384h-85.333v384z" />
<glyph unicode="&#xe944;" glyph-name="delete-outline" d="M256 149.333c0-47.128 38.205-85.333 85.333-85.333v0h341.333c47.128 0 85.333 38.205 85.333 85.333v0 512h-512v-512zM341.333 576h341.333v-426.667h-341.333v426.667zM661.333 789.333l-42.667 42.667h-213.333l-42.667-42.667h-149.333v-85.333h597.333v85.333h-149.333z" />
<glyph unicode="&#xe945;" glyph-name="cash-multiple" d="M213.333 704h768v-512h-768v512zM597.333 576c70.692 0 128-57.308 128-128v0c0-70.692-57.308-128-128-128v0c-70.692 0-128 57.308-128 128v0c0 70.692 57.308 128 128 128v0zM384 618.667c0-47.128-38.205-85.333-85.333-85.333v0-170.667c47.128 0 85.333-38.205 85.333-85.333v0h426.667c0 47.128 38.205 85.333 85.333 85.333v0 170.667c-47.128 0-85.333 38.205-85.333 85.333v0h-426.667zM42.667 533.333h85.333v-426.667h682.667v-85.333h-768v512z" />
<glyph unicode="&#xe946;" glyph-name="arrow-left-thick" d="M853.333 533.333v-170.667h-384l149.333-149.333-103.253-103.253-337.92 337.92 337.92 337.92 103.253-103.253-149.333-149.333h384z" />
<glyph unicode="&#xe947;" glyph-name="printer" d="M768 832h-512v-170.667h512zM810.667 448c-23.564 0-42.667 19.103-42.667 42.667v0c0 23.564 19.103 42.667 42.667 42.667v0c23.564 0 42.667-19.103 42.667-42.667v0c0-23.564-19.103-42.667-42.667-42.667v0zM682.667 149.333h-341.333v213.333h341.333zM810.667 618.667h-597.333c-70.692 0-128-57.308-128-128v0-256h170.667v-170.667h512v170.667h170.667v256c0 70.692-57.308 128-128 128v0z" />
<glyph unicode="&#xe948;" glyph-name="dots-vertical" d="M512 277.333c22.63 0 44.335-8.99 60.339-24.994s24.994-37.709 24.994-60.339c0-22.63-8.99-44.335-24.994-60.339s-37.709-24.994-60.339-24.994c-22.63 0-44.335 8.99-60.339 24.994s-24.994 37.709-24.994 60.339c0 22.63 8.99 44.335 24.994 60.339s37.709 24.994 60.339 24.994zM512 533.333c22.63 0 44.335-8.99 60.339-24.994s24.994-37.709 24.994-60.339c0-22.63-8.99-44.335-24.994-60.339s-37.709-24.994-60.339-24.994c-22.63 0-44.335 8.99-60.339 24.994s-24.994 37.709-24.994 60.339c0 22.63 8.99 44.335 24.994 60.339s37.709 24.994 60.339 24.994zM512 789.333c22.63 0 44.335-8.99 60.339-24.994s24.994-37.708 24.994-60.34c0-22.632-8.99-44.337-24.994-60.34s-37.709-24.994-60.339-24.994c-22.63 0-44.335 8.99-60.339 24.994s-24.994 37.708-24.994 60.34c0 22.632 8.99 44.337 24.994 60.34s37.709 24.994 60.339 24.994z" />
<glyph unicode="&#xe949;" glyph-name="paperclip" d="M704 704v-490.667c0-45.265-17.98-88.674-49.988-120.678-32.004-32.009-75.413-49.988-120.678-49.988s-88.674 17.98-120.68 49.988c-32.006 32.004-49.987 75.413-49.987 120.678v533.333c0 28.29 11.238 55.421 31.242 75.425s47.137 31.242 75.425 31.242c28.288 0 55.42-11.238 75.426-31.242 20.002-20.004 31.241-47.135 31.241-75.425v-448c0-11.315-4.497-22.17-12.497-30.17s-18.854-12.497-30.17-12.497c-11.315 0-22.17 4.497-30.17 12.497s-12.497 18.854-12.497 30.17v405.333h-64v-405.333c0-28.288 11.238-55.42 31.241-75.426 20.006-20.002 47.138-31.241 75.426-31.241s55.42 11.238 75.426 31.241c20.002 20.006 31.241 47.138 31.241 75.426v448c0 45.264-17.98 88.673-49.988 120.68-32.004 32.006-75.413 49.987-120.678 49.987s-88.673-17.981-120.68-49.987-49.987-75.416-49.987-120.68v-533.333c0-62.238 24.724-121.924 68.732-165.935 44.009-44.006 103.697-68.732 165.935-68.732s121.924 24.725 165.935 68.732c44.006 44.011 68.732 103.697 68.732 165.935v490.667h-64z" />
<glyph unicode="&#xe94a;" glyph-name="filter-outline" d="M640 111.787c1.707-12.8-2.56-26.453-12.373-35.413-16.64-16.64-43.52-16.64-60.16 0l-171.093 171.093c-9.813 9.813-14.080 23.040-12.373 35.413v218.453l-204.373 261.547c-14.507 18.347-11.093 45.227 7.253 59.733 8.107 5.973 17.067 9.387 26.453 9.387h597.333c9.387 0 18.347-3.413 26.453-9.387 18.347-14.507 21.76-41.387 7.253-59.733l-204.373-261.547v-389.547zM300.373 746.667l168.96-215.893v-235.52l85.333-85.333v321.28l168.96 215.467h-423.253z" />
<glyph unicode="&#xe94b;" glyph-name="messages" d="M672.004 800v-320h-512.002v320h512.002zM736.004 864h-640.002v-448h64l43.401-81.438 52.599 81.438h480.002v448zM544.004 768v-64h-320.002v64h320.002zM224.003 672v-64h320.002v64h-320.002zM544.004 576v-64h-320.002v64h320.002zM352.003 160v224h-64v-288h480.002l52.591-60.105 51.742 60.105h55.667v480h-161.809v-64h97.809v-352h-512.002zM800.004 384v-64h-320v64h320zM480.004 288v-64h320v64h-320z" />
<glyph unicode="&#xe94c;" glyph-name="account-settings" d="M512 789.333c45.265 0 88.674-17.981 120.678-49.987 32.009-32.006 49.988-75.416 49.988-120.68s-17.98-88.674-49.988-120.678c-32.004-32.009-75.413-49.988-120.678-49.988s-88.673 17.98-120.68 49.988c-32.006 32.004-49.987 75.415-49.987 120.678s17.981 88.673 49.987 120.68c32.006 32.006 75.415 49.987 120.68 49.987zM512 362.667c188.587 0 341.333-76.373 341.333-170.667v-85.333h-682.667v85.333c0 94.293 152.747 170.667 341.333 170.667zM298.667 21.333h85.333v-85.333h-85.333v85.333zM469.333 21.333h85.333v-85.333h-85.333v85.333zM640 21.333h85.333v-85.333h-85.333v85.333z" />
<glyph unicode="&#xe94d;" glyph-name="add-person" d="M640 362.667c-113.92 0-341.333-56.747-341.333-170.667v-85.333h682.667v85.333c0 113.92-227.413 170.667-341.333 170.667zM256 533.333v128h-85.333v-128h-128v-85.333h128v-128h85.333v128h128v85.333h-128zM640 448c45.265 0 88.674 17.98 120.678 49.988 32.009 32.004 49.988 75.415 49.988 120.678s-17.98 88.673-49.988 120.68c-32.004 32.006-75.413 49.987-120.678 49.987s-88.674-17.981-120.678-49.987c-32.009-32.006-49.988-75.416-49.988-120.68s17.98-88.674 49.988-120.678c32.004-32.009 75.413-49.988 120.678-49.988z" />
<glyph unicode="&#xe94e;" glyph-name="message-outline" d="M170.667 874.667h682.667c22.63 0 44.335-8.99 60.339-24.994s24.994-37.708 24.994-60.34v-512c0-22.63-8.99-44.335-24.994-60.339s-37.709-24.994-60.339-24.994h-597.333l-170.667-170.667v768c0 22.632 8.99 44.337 24.994 60.34s37.708 24.994 60.34 24.994zM256 277.333h597.333v512h-682.667v-597.333l85.333 85.333zM768 704v-85.333h-512v85.333h512zM256 576v-85.333h512v85.333h-512zM597.333 448v-85.333h-341.333v85.333h341.333z" />
<glyph unicode="&#xea93;" glyph-name="whatsapp" d="M873 811.2c-95.8 96-223.2 148.8-359 148.8-279.6 0-507.2-227.6-507.2-507.4 0-89.4 23.4-176.8 67.8-253.6l-72-263 269 70.6c74.2-40.4 157.6-61.8 242.4-61.8h0.2c0 0 0 0 0 0 279.6 0 507.4 227.6 507.4 507.4 0 135.6-52.8 263-148.6 359zM514.2 30.4v0c-75.8 0-150 20.4-214.8 58.8l-15.4 9.2-159.6-41.8 42.6 155.6-10 16c-42.4 67-64.6 144.6-64.6 224.4 0 232.6 189.2 421.8 422 421.8 112.6 0 218.6-44 298.2-123.6 79.6-79.8 123.4-185.6 123.4-298.4-0.2-232.8-189.4-422-421.8-422zM745.4 346.4c-12.6 6.4-75 37-86.6 41.2s-20 6.4-28.6-6.4c-8.4-12.6-32.8-41.2-40.2-49.8-7.4-8.4-14.8-9.6-27.4-3.2s-53.6 19.8-102 63c-37.6 33.6-63.2 75.2-70.6 87.8s-0.8 19.6 5.6 25.8c5.8 5.6 12.6 14.8 19 22.2s8.4 12.6 12.6 21.2c4.2 8.4 2.2 15.8-1 22.2s-28.6 68.8-39 94.2c-10.2 24.8-20.8 21.4-28.6 21.8-7.4 0.4-15.8 0.4-24.2 0.4s-22.2-3.2-33.8-15.8c-11.6-12.6-44.4-43.4-44.4-105.8s45.4-122.6 51.8-131.2c6.4-8.4 89.4-136.6 216.6-191.4 30.2-13 53.8-20.8 72.2-26.8 30.4-9.6 58-8.2 79.8-5 24.4 3.6 75 30.6 85.6 60.2s10.6 55 7.4 60.2c-3 5.6-11.4 8.8-24.2 15.2z" />
</font>
</defs>
</svg>
